<svg xmlns="http://www.w3.org/2000/svg" width="300" height="300" viewBox="0 0 300 300"><rect width="100%" height="100%" fill="#DDDDDD"/><path fill="#999999" d="M67.545 157.325h12.43v4.77h-18.21v-31.09h5.78v26.32Zm25.48-17.63q2.45 0 4.46.79 2.01.8 3.44 2.26 1.43 1.46 2.21 3.57.77 2.11.77 4.71 0 2.62-.77 4.73-.78 2.1-2.21 3.59-1.43 1.48-3.44 2.28-2.01.79-4.46.79-2.47 0-4.49-.79-2.02-.8-3.45-2.28-1.43-1.49-2.22-3.59-.78-2.11-.78-4.73 0-2.6.78-4.71.79-2.11 2.22-3.57 1.43-1.46 3.45-2.26 2.02-.79 4.49-.79Zm0 18.64q2.75 0 4.08-1.85 1.32-1.85 1.32-5.42t-1.32-5.44q-1.33-1.87-4.08-1.87-2.79 0-4.14 1.88-1.34 1.88-1.34 5.43t1.34 5.41q1.35 1.86 4.14 1.86Zm26.6-1.94v-3.72q-2.3.11-3.87.4-1.57.29-2.52.74-.94.45-1.35 1.06-.41.6-.41 1.31 0 1.39.83 2 .82.6 2.16.6 1.63 0 2.82-.59 1.2-.59 2.34-1.8Zm-11.23-11.59-.94-1.69q3.8-3.49 9.16-3.49 1.93 0 3.46.64 1.52.63 2.58 1.76 1.05 1.13 1.6 2.7.55 1.57.55 3.44v13.93h-2.41q-.75 0-1.16-.23-.41-.22-.65-.91l-.47-1.59q-.84.75-1.63 1.32-.8.57-1.66.96-.86.39-1.84.59-.97.2-2.16.2-1.39 0-2.58-.37-1.18-.38-2.04-1.13-.86-.75-1.33-1.87-.48-1.12-.48-2.6 0-.84.28-1.67t.92-1.58q.63-.75 1.64-1.42 1.01-.67 2.49-1.16 1.47-.49 3.42-.81 1.96-.31 4.48-.37v-1.29q0-2.22-.95-3.28-.95-1.07-2.73-1.07-1.29 0-2.14.31-.85.3-1.49.67-.65.38-1.17.68-.53.3-1.18.3-.56 0-.94-.29-.39-.29-.63-.68Zm35.24 10.75v-9.89q-.9-1.09-1.96-1.54-1.07-.46-2.29-.46-1.21 0-2.18.46-.96.45-1.65 1.36-.69.91-1.06 2.32-.36 1.41-.36 3.32 0 1.94.31 3.28.31 1.35.89 2.2.58.85 1.42 1.22.84.38 1.87.38 1.66 0 2.82-.69t2.19-1.96Zm0-25.41h5.31v31.95h-3.24q-1.06 0-1.34-.97l-.45-2.13q-1.33 1.53-3.06 2.48-1.73.94-4.03.94-1.81 0-3.31-.75-1.51-.75-2.59-2.18-1.09-1.43-1.68-3.54-.59-2.11-.59-4.82 0-2.45.66-4.55.67-2.11 1.92-3.66 1.24-1.55 2.99-2.42 1.74-.87 3.91-.87 1.85 0 3.16.58t2.34 1.57v-11.63Zm10.73 9.89h5.33v22.06h-5.33v-22.06Zm6.06-6.43q0 .69-.28 1.29-.28.6-.74 1.06-.46.45-1.08.72-.63.26-1.34.26-.68 0-1.3-.26-.61-.27-1.06-.72-.45-.46-.72-1.06-.27-.6-.27-1.29 0-.71.27-1.33.27-.62.72-1.08.45-.45 1.06-.72.62-.26 1.3-.26.71 0 1.34.26.62.27 1.08.72.46.46.74 1.08.28.62.28 1.33Zm9.29 7.4.37 1.74q.66-.67 1.41-1.24.74-.57 1.57-.96.82-.4 1.77-.63.94-.22 2.06-.22 1.81 0 3.21.61 1.39.61 2.33 1.72.93 1.11 1.42 2.64.48 1.54.48 3.39v14.04h-5.31v-14.04q0-2.02-.92-3.13-.93-1.11-2.82-1.11-1.38 0-2.58.63-1.2.62-2.28 1.7v15.95h-5.31v-22.06h3.25q1.03 0 1.35.97Zm27.72 9.52q.98 0 1.72-.27.73-.26 1.21-.74.48-.47.73-1.14.25-.66.25-1.46 0-1.63-.98-2.59t-2.93-.96q-1.96 0-2.94.96t-.98 2.59q0 .77.25 1.44.25.67.73 1.15.48.49 1.23.75.74.27 1.71.27Zm5.99 12.56q0-.65-.38-1.05-.39-.41-1.06-.64-.66-.22-1.56-.33-.89-.11-1.89-.16-1-.06-2.06-.1-1.07-.04-2.08-.17-.88.49-1.43 1.16-.54.67-.54 1.55 0 .58.29 1.08.29.51.92.87.63.37 1.65.57 1.01.21 2.47.21 1.48 0 2.56-.23 1.07-.22 1.77-.62t1.02-.95q.32-.55.32-1.19Zm-1.05-22.3h6.34v1.98q0 .95-1.14 1.16l-1.97.37q.45 1.14.45 2.49 0 1.64-.66 2.96-.65 1.32-1.82 2.24-1.16.93-2.74 1.43-1.58.51-3.4.51-.65 0-1.25-.06-.6-.07-1.18-.18-1.04.63-1.04 1.4 0 .67.62.98.61.31 1.62.44 1.01.13 2.3.16 1.29.03 2.64.14 1.36.11 2.65.38 1.29.27 2.3.85 1.01.58 1.62 1.58.62 1 .62 2.57 0 1.46-.72 2.83-.72 1.38-2.09 2.46-1.37 1.07-3.35 1.73-1.99.65-4.53.65-2.49 0-4.34-.48-1.85-.49-3.08-1.29-1.22-.81-1.82-1.86-.61-1.06-.61-2.19 0-1.55.94-2.6.93-1.04 2.57-1.66-.88-.45-1.4-1.21-.52-.75-.52-1.97 0-.5.19-1.03.18-.52.53-1.04.36-.51.9-.98.53-.46 1.27-.82-1.68-.91-2.64-2.41-.96-1.51-.96-3.53 0-1.63.66-2.95.66-1.33 1.83-2.26 1.17-.94 2.77-1.43 1.6-.5 3.5-.5 1.41 0 2.66.29 1.25.29 2.28.85Zm8.92 18.39q0-.67.25-1.27t.68-1.03q.43-.43 1.03-.69.6-.26 1.29-.26.69 0 1.28.26.59.26 1.03.69.44.43.7 1.03.26.6.26 1.27 0 .68-.26 1.28-.26.59-.7 1.02-.44.43-1.03.67-.59.25-1.28.25-.69 0-1.29-.25-.6-.24-1.03-.67-.43-.43-.68-1.02-.25-.6-.25-1.28Zm10.22 0q0-.67.24-1.27.25-.6.68-1.03.43-.43 1.03-.69.6-.26 1.29-.26.69 0 1.28.26.59.26 1.03.69.44.43.7 1.03.26.6.26 1.27 0 .68-.26 1.28-.26.59-.7 1.02-.44.43-1.03.67-.59.25-1.28.25-.69 0-1.29-.25-.6-.24-1.03-.67-.43-.43-.68-1.02-.24-.6-.24-1.28Zm10.21 0q0-.67.25-1.27.24-.6.67-1.03.43-.43 1.03-.69.61-.26 1.29-.26.69 0 1.28.26.59.26 1.04.69.44.43.69 1.03.26.6.26 1.27 0 .68-.26 1.28-.25.59-.69 1.02-.45.43-1.04.67-.59.25-1.28.25-.68 0-1.29-.25-.6-.24-1.03-.67-.43-.43-.67-1.02-.25-.6-.25-1.28Z"/></svg>